:version 1.10
:name ASF
:units
  mass 1
  length 1
  angle deg
:documentation
  ASF file generated by Kaydara
:root
  axis xyz
  order  tx ty tz rx ry rz
  position 0 0 0
  orientation 0 0 0
:bonedata
  begin
    id 1
    name RightUpLegDummy
    direction -1 2.30186e-007 8.31532e-007
    length 4.04083
    axis 0 0 0 xyz
  end
  begin
    id 2
    name RightUpLeg
    direction -0.000919234 -0.999985 0.00544864
    length 17.4221
    axis -3.80308 -0.00076134 -0.0523649 xyz
    dof rx ry rz
  end
  begin
    id 3
    name RightLeg
    direction -0.000919271 -0.999984 -0.00555045
    length 17.1239
    axis 4.00314 0.0181274 -0.183583 xyz
    dof rx ry rz
  end
  begin
    id 4
    name RightFoot
    direction -2.57843e-005 -4.04509e-007 1
    length 6.72091
    axis 8.18909e-005 -0.122003 -0.403008 xyz
    dof rx ry rz
  end
  begin
    id 5
    name RightToes
    direction 0.00116825 -0.014069 0.9999
    length 3.85082
    axis 0.000514414 0.540638 -0.356797 xyz
    dof rx ry rz
  end
  begin
    id 6
    name SpineDummy
    direction 0.0168869 0.966876 -0.254689
    length 6.99894
    axis 0 0 0 xyz
  end
  begin
    id 7
    name Spine
    direction -0.0132008 0.999903 0.00446247
    length 11.1999
    axis -0.00148109 0.00725429 0.756411 xyz
    dof rx ry rz
  end
  begin
    id 8
    name Spine1
    direction 0 0 0
    length 0
    axis -0.000934958 0.0245693 1.46543 xyz
    dof rx ry rz
  end
  begin
    id 9
    name HEadDummy
    direction -0.0255732 0.999672 0.00128215
    length 3.43865
    axis -0.000934958 0.0245693 1.46543 xyz
  end
  begin
    id 10
    name HEad
    direction -0.0472656 0.980052 0.19304
    length 5.12695
    axis -0.000934954 0.0245693 1.46543 xyz
    dof rx ry rz
  end
  begin
    id 11
    name LeftShoulder1Dummy
    direction 0.953098 0.301717 -0.023914
    length 3.68488
    axis -0.000934958 0.0245693 1.46543 xyz
  end
  begin
    id 12
    name LeftShoulder1
    direction 0.962466 0.271167 0.0112566
    length 3.13809
    axis -0.000934958 0.0245693 1.46543 xyz
    dof rx ry rz
  end
  begin
    id 13
    name LeftArm
    direction 0.999943 0.00455037 -0.00961766
    length 11.3419
    axis -23.1648 0.685459 1.22814 xyz
    dof rx ry rz
  end
  begin
    id 14
    name LeftForeArm
    direction 0.999332 0.0131969 0.0340885
    length 8.70632
    axis -9.90633 0.618216 0.0826942 xyz
    dof rx ry rz
  end
  begin
    id 15
    name LeftHand
    direction 0.994373 -0.0366703 0.0993905
    length 5.32135
    axis 0.00675269 0.680415 0.445699 xyz
    dof rx ry rz
  end
  begin
    id 16
    name RightShoulderDummy
    direction -0.967298 0.252589 -0.0230903
    length 3.68488
    axis -0.000934958 0.0245693 1.46543 xyz
  end
  begin
    id 17
    name RightShoulder
    direction -0.975062 0.221602 0.0120823
    length 3.13809
    axis 0.216257 0.0246515 1.45863 xyz
    dof rx ry rz
  end
  begin
    id 18
    name RightArm
    direction -0.99886 -0.00851186 -0.0469687
    length 10.3947
    axis -23.196 0.23503 -0.532632 xyz
    dof rx ry rz
  end
  begin
    id 19
    name RightForeArm
    direction -0.99909 0.00114866 0.0426317
    length 8.68355
    axis -9.91764 -0.134943 0.610517 xyz
    dof rx ry rz
  end
  begin
    id 20
    name RightHand
    direction -0.992888 -0.0489538 0.10852
    length 5.28593
    axis -0.00275396 -0.197403 0.246414 xyz
    dof rx ry rz
  end
  begin
    id 21
    name LeftUpLegDummy
    direction 1 -2.30186e-007 -8.31532e-007
    length 4.04083
    axis 0 0 0 xyz
  end
  begin
    id 22
    name LeftUpLeg
    direction -0.000920097 -1 2.79241e-006
    length 17.4221
    axis -3.48782 0.00143434 -0.0532288 xyz
    dof rx ry rz
  end
  begin
    id 23
    name LeftLeg
    direction -0.000920097 -1 2.7912e-006
    length 17.1239
    axis 3.68162 -0.00806512 -0.0529896 xyz
    dof rx ry rz
  end
  begin
    id 24
    name LeftFoot
    direction -2.57845e-005 -3.987e-007 1
    length 6.72091
    axis 3.02372e-005 -0.00147829 -0.214229 xyz
    dof rx ry rz
  end
  begin
    id 25
    name LeftToes
    direction 0.00813577 -0.00488255 0.999955
    length 3.85048
    axis 3.89895e-005 -0.0014783 -0.214229 xyz
    dof rx ry rz
  end
:hierarchy
  begin
    root RightUpLegDummy SpineDummy LeftUpLegDummy
    RightUpLegDummy RightUpLeg
    RightUpLeg RightLeg
    RightLeg RightFoot
    RightFoot RightToes
    SpineDummy Spine
    Spine Spine1
    Spine1 HEadDummy LeftShoulder1Dummy RightShoulderDummy
    HEadDummy HEad
    LeftShoulder1Dummy LeftShoulder1
    LeftShoulder1 LeftArm
    LeftArm LeftForeArm
    LeftForeArm LeftHand
    RightShoulderDummy RightShoulder
    RightShoulder RightArm
    RightArm RightForeArm
    RightForeArm RightHand
    LeftUpLegDummy LeftUpLeg
    LeftUpLeg LeftLeg
    LeftLeg LeftFoot
    LeftFoot LeftToes
  end

:SAMPLES-PER-SECOND 30
:FULLY-SPECIFIED
:DEGREES
36
root  -10.6104 34.7453 -12.0994 -171.436 3.96545 179.984
RightUpLeg  -4.38983 -16.6159 -2.7256
RightLeg  1.46944 -3.76602 0.146287
RightFoot  6.97538 0.0632839 -0.290817
RightToes  -27.2274 -0.117119 -0.230814
Spine  -2.40955 0.900684 -1.51343
Spine1  -4.76321 1.65562 -2.16929
HEad  -64.949 2.93204 9.65948
LeftShoulder1  -1.94126e-019 -3.10601e-018 -2.51263e-017
LeftArm  -9.35817 26.3256 -75.2113
LeftForeArm  32.3118 -21.2779 -3.49743
LeftHand  -0.250367 0.110913 5.56595
RightShoulder  -4.96962e-017 0 -2.36833e-017
RightArm  -45.674 9.45547 24.0358
RightForeArm  -133.112 57.1295 168.515
RightHand  -1.38554 -0.746692 -33.9033
LeftUpLeg  -5.22702 2.03394 3.46682
LeftLeg  0.354813 12.8401 -0.740198
LeftFoot  8.54416 -0.142309 2.10707
LeftToes  -26.4668 2.14545e-006 -7.7278e-009
37
root  -10.6023 34.7466 -12.0861 -171.491 4.03061 -179.985
RightUpLeg  -4.35827 -16.5244 -2.69322
RightLeg  1.45813 -3.7894 0.147141
RightFoot  6.997 0.0641296 -0.294497
RightToes  -27.2357 -0.117119 -0.230814
Spine  -2.37261 0.907566 -1.52708
Spine1  -4.70536 1.69562 -2.21681
HEad  -65.1027 3.16952 9.21353
LeftShoulder1  -1.94126e-019 -3.10601e-018 -2.51263e-017
LeftArm  -9.19497 26.6455 -74.9149
LeftForeArm  31.971 -21.3936 -3.49341
LeftHand  -0.252359 0.0676218 5.43721
RightShoulder  -4.96962e-017 0 -2.36833e-017
RightArm  -50.0951 9.27277 25.2328
RightForeArm  -137.609 59.6511 167.017
RightHand  -1.13067 -1.61973 -34.0676
LeftUpLeg  -5.15983 2.2418 3.50807
LeftLeg  0.31115 12.6853 -0.741038
LeftFoot  8.56353 -0.141037 2.08799
LeftToes  -26.594 2.14545e-006 -7.7278e-009
38
root  -10.5947 34.7514 -12.0696 -171.541 4.13374 -179.965
RightUpLeg  -4.35321 -16.4153 -2.66709
RightLeg  1.45983 -3.80362 0.14838
RightFoot  7.03604 0.0648544 -0.296532
RightToes  -27.1863 -0.117119 -0.230814
Spine  -2.38733 0.877917 -1.54238
Spine1  -4.75025 1.66082 -2.2703
HEad  -64.581 3.34696 8.87718
LeftShoulder1  -1.94126e-019 -3.10601e-018 -2.51263e-017
LeftArm  -9.07088 26.928 -74.6304
LeftForeArm  31.8489 -21.2686 -3.46515
LeftHand  -0.251584 0.0791945 5.50801
RightShoulder  -4.96962e-017 0 -2.36833e-017
RightArm  -55.9519 10.272 27.2925
RightForeArm  -146.809 63.2887 164.22
RightHand  -0.74786 -2.7905 -32.7536
LeftUpLeg  -5.08572 2.33988 3.5379
LeftLeg  0.249824 12.6715 -0.753736
LeftFoot  8.60462 -0.141452 2.09537
LeftToes  -26.624 2.14545e-006 -7.7278e-009
39
root  -10.5878 34.7543 -12.0512 -171.585 4.38936 -179.945
RightUpLeg  -4.37663 -16.1937 -2.64429
RightLeg  1.4488 -3.77111 0.147839
RightFoot  7.08348 0.065352 -0.295411
RightToes  -27.1759 -0.117119 -0.230814
Spine  -2.42598 0.834181 -1.55069
Spine1  -4.83684 1.58797 -2.30048
HEad  -63.6668 3.59152 8.79291
LeftShoulder1  -1.94126e-019 -3.10601e-018 -2.51263e-017
LeftArm  -9.09275 27.0955 -74.4238
LeftForeArm  31.9109 -20.8506 -3.40883
LeftHand  -0.251813 0.085391 5.55691
RightShoulder  -4.96962e-017 0 -2.36833e-017
RightArm  -61.6711 12.3473 29.6167
RightForeArm  -158.475 67.2783 160.024
RightHand  -0.119843 -4.95064 -31.2633
LeftUpLeg  -5.00222 2.53945 3.55459
LeftLeg  0.202606 12.7136 -0.76662
LeftFoot  8.62908 -0.142169 2.10752
LeftToes  -26.6866 2.14545e-006 -7.7278e-009
40
root  -10.5792 34.7545 -12.037 -171.614 4.85088 -179.897
RightUpLeg  -4.4309 -15.8704 -2.59997
RightLeg  1.42415 -3.61879 0.143433
RightFoot  7.14164 0.0649016 -0.280838
RightToes  -27.2382 -0.117119 -0.230814
Spine  -2.46868 0.829169 -1.54014
Spine1  -4.92771 1.58614 -2.28929
HEad  -62.6462 3.73432 9.02019
LeftShoulder1  -1.94126e-019 -3.10601e-018 -2.51263e-017
LeftArm  -9.31552 27.0955 -74.3389
LeftForeArm  32.1075 -20.1792 -3.31653
LeftHand  -0.252774 0.112544 5.59781
RightShoulder  -4.96962e-017 0 -2.36833e-017
RightArm  -66.4322 14.5678 31.9502
RightForeArm  -168.988 70.1586 155.746
RightHand  0.437702 -7.13122 -28.7806
LeftUpLeg  -4.90181 2.91913 3.58529
LeftLeg  0.195278 12.7818 -0.77229
LeftFoot  8.59346 -0.142278 2.11017
LeftToes  -26.6971 2.14545e-006 -7.7278e-009
41
root  -10.5717 34.7535 -12.0215 -171.649 5.44055 -179.841
RightUpLeg  -4.54447 -15.524 -2.55342
RightLeg  1.4821 -3.3857 0.130801
RightFoot  7.1658 0.0636033 -0.254254
RightToes  -27.2415 -0.117119 -0.230814
Spine  -2.48684 0.870512 -1.5232
Spine1  -4.96408 1.66861 -2.25576
HEad  -62.1206 3.72396 9.439
LeftShoulder1  -1.94126e-019 -3.10601e-018 -2.51263e-017
LeftArm  -9.62916 26.9364 -74.3251
LeftForeArm  32.3199 -19.6478 -3.24722
LeftHand  -0.256012 0.0878966 5.6457
RightShoulder  -4.96962e-017 0 -2.36833e-017
RightArm  -68.4901 15.8505 34.0487
RightForeArm  -172.155 70.6963 154.661
RightHand  0.892099 -9.20449 -26.8505
LeftUpLeg  -4.78045 3.28062 3.61959
LeftLeg  0.208173 12.9859 -0.781502
LeftFoot  8.52987 -0.143371 2.12788
LeftToes  -26.7847 2.14545e-006 -7.7278e-009
42
root  -10.568 34.7516 -12.0071 -171.697 5.99843 -179.81
RightUpLeg  -4.65315 -15.2129 -2.5397
RightLeg  1.56426 -3.15581 0.117431
RightFoot  7.16327 0.0622123 -0.226462
RightToes  -27.2156 -0.117119 -0.230814
Spine  -2.48832 0.886121 -1.48886
Spine1  -4.95758 1.68745 -2.16529
HEad  -62.2203 3.78379 9.60612
LeftShoulder1  -1.94126e-019 -3.10601e-018 -2.51263e-017
LeftArm  -9.93203 26.8495 -74.3979
LeftForeArm  32.4007 -19.5699 -3.23982
LeftHand  -0.260575 0.180573 5.78092
RightShoulder  -4.96962e-017 0 -2.36833e-017
RightArm  -66.7964 15.882 35.9139
RightForeArm  -167.495 68.7389 157.604
RightHand  0.904761 -9.34031 -26.3358
LeftUpLeg  -4.6584 3.52249 3.62737
LeftLeg  0.231186 13.2771 -0.793414
LeftFoot  8.45709 -0.145223 2.15707
LeftToes  -26.7116 2.14545e-006 -7.7278e-009
43
root  -10.5689 34.7496 -11.9994 -171.726 6.46225 -179.805
RightUpLeg  -4.76089 -14.8949 -2.55306
RightLeg  1.65323 -3.02588 0.107929
RightFoot  7.15035 0.0616647 -0.210847
RightToes  -27.2496 -0.117119 -0.230814
Spine  -2.48674 0.783749 -1.42622
Spine1  -4.93271 1.4531 -1.99763
HEad  -62.6638 4.19248 9.42246
LeftShoulder1  -1.94126e-019 -3.10601e-018 -2.51263e-017
LeftArm  -10.2019 26.9683 -74.5552
LeftForeArm  32.2395 -19.9113 -3.28651
LeftHand  -0.262766 0.194029 5.90242
RightShoulder  -4.96962e-017 0 -2.36833e-017
RightArm  -61.3058 14.9453 37.5175
RightForeArm  -157.057 65.0434 162.104
RightHand  0.432857 -7.20295 -27.4959
LeftUpLeg  -4.5846 3.76232 3.60417
LeftLeg  0.28746 13.4836 -0.792366
LeftFoot  8.39815 -0.146422 2.1756
LeftToes  -26.6265 2.14545e-006 -7.7278e-009
44
root  -10.5704 34.7466 -11.9927 -171.721 6.88113 -179.805
RightUpLeg  -4.88943 -14.571 -2.56217
RightLeg  1.73767 -2.94192 0.100625
RightFoot  7.12824 0.0615901 -0.202124
RightToes  -27.1849 -0.117119 -0.230814
Spine  -2.50403 0.632417 -1.32864
Spine1  -4.93784 1.10453 -1.75423
HEad  -63.1179 4.71359 9.05697
LeftShoulder1  -1.94126e-019 -3.10601e-018 -2.51263e-017
LeftArm  -10.2377 27.1251 -74.7922
LeftForeArm  32.188 -20.3284 -3.34105
LeftHand  -0.258591 0.13109 5.74512
RightShoulder  -4.96962e-017 0 -2.36833e-017
RightArm  -53.4842 13.7687 38.417
RightForeArm  -147.542 60.6505 165.84
RightHand  -0.204847 -4.58926 -29.0535
LeftUpLeg  -4.55673 4.02964 3.57753
LeftLeg  0.359211 13.6095 -0.782696
LeftFoot  8.31844 -0.146433 2.17501
LeftToes  -26.5811 2.14545e-006 -7.7278e-009
45
root  -10.5767 34.745 -11.9928 -171.721 7.2861 -179.788
RightUpLeg  -4.96084 -14.3057 -2.56851
RightLeg  1.74094 -2.81971 0.0963001
RightFoot  7.15578 0.0615239 -0.193662
RightToes  -27.2081 -0.117119 -0.230814
Spine  -2.54291 0.51767 -1.23165
Spine1  -4.98507 0.820048 -1.51938
HEad  -63.3294 5.09998 8.81547
LeftShoulder1  -1.94126e-019 -3.10601e-018 -2.51263e-017
LeftArm  -10.0362 27.1116 -75.0165
LeftForeArm  32.4766 -20.6816 -3.40439
LeftHand  -0.249034 -0.0578465 5.35905
RightShoulder  -4.96962e-017 0 -2.36833e-017
RightArm  -45.0258 12.5524 38.9545
RightForeArm  -140.781 56.8804 168.232
RightHand  -0.745802 -2.66354 -31.1894
LeftUpLeg  -4.49445 4.333 3.55281
LeftLeg  0.380502 13.7251 -0.784154
LeftFoot  8.25141 -0.146438 2.17415
LeftToes  -26.5831 2.14545e-006 -7.7278e-009
46
root  -10.5878 34.7455 -11.9965 -171.723 7.55646 -179.774
RightUpLeg  -4.98885 -14.283 -2.58618
RightLeg  1.72985 -2.57305 0.0884059
RightFoot  7.19277 0.0604026 -0.17027
RightToes  -27.277 -0.117119 -0.230814
Spine  -2.55138 0.496021 -1.17277
Spine1  -4.98123 0.736061 -1.37996
HEad  -63.5028 5.12411 8.91826
LeftShoulder1  -1.94126e-019 -3.10601e-018 -2.51263e-017
LeftArm  -9.54432 26.764 -75.2044
LeftForeArm  32.6052 -21.1242 -3.48827
LeftHand  -0.241427 -0.0342257 5.21602
RightShoulder  -4.96962e-017 0 -2.36833e-017
RightArm  -38.8137 11.0648 39.2609
RightForeArm  -133.738 54.4964 169.637
RightHand  -1.39915 -0.786011 -34.4947
LeftUpLeg  -4.40911 4.48619 3.53098
LeftLeg  0.337241 13.8297 -0.800378
LeftFoot  8.20869 -0.146699 2.17766
LeftToes  -26.5151 2.14545e-006 -7.7278e-009
47
root  -10.6046 34.7477 -11.9984 -171.725 7.6257 -179.778
RightUpLeg  -4.95364 -14.1498 -2.61639
RightLeg  1.62085 -2.64932 0.0960341
RightFoot  7.26727 0.0618352 -0.183533
RightToes  -27.2905 -0.117119 -0.230814
Spine  -2.52142 0.58093 -1.15327
Spine1  -4.91768 0.900377 -1.33797
HEad  -63.892 4.85284 9.39254
LeftShoulder1  -1.94126e-019 -3.10601e-018 -2.51263e-017
LeftArm  -9.24604 26.1296 -75.3767
LeftForeArm  32.6583 -21.7848 -3.60055
LeftHand  -0.236782 -0.0783997 5.07886
RightShoulder  -4.96962e-017 0 -2.36833e-017
RightArm  -37.5826 9.36061 39.6203
RightForeArm  -126.972 53.9247 170.148
RightHand  -1.78641 -0.302583 -39.4834
LeftUpLeg  -4.35762 4.44391 3.49614
LeftLeg  0.252368 13.9359 -0.826901
LeftFoot  8.21558 -0.147893 2.19604
LeftToes  -26.4636 2.14545e-006 -7.7278e-009
48
root  -10.6301 34.7505 -12.001 -171.726 7.48488 -179.81
RightUpLeg  -4.89326 -14.2257 -2.68312
RightLeg  1.53864 -2.69322 0.100326
RightFoot  7.33223 0.0626981 -0.18882
RightToes  -27.3491 -0.117119 -0.230814
Spine  -2.5001 0.70554 -1.13621
Spine1  -4.89192 1.18578 -1.32619
HEad  -64.1912 4.61838 9.66541
LeftShoulder1  -1.94126e-019 -3.10601e-018 -2.51263e-017
LeftArm  -8.84622 25.5404 -75.5079
LeftForeArm  32.3068 -22.7283 -3.72986
LeftHand  -0.231273 -0.130775 4.91911
RightShoulder  -4.96962e-017 0 -2.36833e-017
RightArm  -41.3423 8.00439 40.4669
RightForeArm  -128.102 54.8248 169.739
RightHand  -1.64392 -0.953657 -41.511
LeftUpLeg  -4.34981 4.3007 3.43142
LeftLeg  0.17495 13.9428 -0.846008
LeftFoot  8.22285 -0.148232 2.20146
LeftToes  -26.3524 2.14545e-006 -7.7278e-009
